HIERARCHY
ROOT Hips
{
    OFFSET 0.000000 0.000000 0.000000
    CHANNELS 6 Xposition Yposition Zposition Zrotation Xrotation Yrotation
    JOINT Spine
    {
        OFFSET -0.000000 7.246840 0.000000
        CHANNELS 3 Zrotation Xrotation Yrotation
        JOINT Spine1
        {
            OFFSET -0.000000 20.289354 0.000000
            CHANNELS 3 Zrotation Xrotation Yrotation
            JOINT Neck
            {
                OFFSET -0.000000 20.206032 1.836912
                CHANNELS 3 Zrotation Xrotation Yrotation
                JOINT Head
                {
                    OFFSET -0.000000 12.372654 -1.767522
                    CHANNELS 3 Zrotation Xrotation Yrotation
                    End Site
                    {
                        OFFSET -0.000000 22.094025 0.000000
                    }
                }
            }
            JOINT LeftShoulder
            {
                OFFSET 3.465871 17.201674 -0.568930
                CHANNELS 3 Zrotation Xrotation Yrotation
                JOINT LeftArm
                {
                    OFFSET 14.070313 0.000000 0.000000
                    CHANNELS 3 Zrotation Xrotation Yrotation
                    JOINT LeftForeArm
                    {
                        OFFSET 26.549477 0.000000 0.000000
                        CHANNELS 3 Zrotation Xrotation Yrotation
                        JOINT LeftHand
                        {
                            OFFSET 18.880413 0.000000 0.000000
                            CHANNELS 3 Zrotation Xrotation Yrotation
                            End Site
                            {
                                OFFSET 13.256415 0.000000 0.000000
                            }
                        }
                    }
                }
            }
            JOINT RightShoulder
            {
                OFFSET -3.526370 17.201674 -0.568930
                CHANNELS 3 Zrotation Xrotation Yrotation
                JOINT RightArm
                {
                    OFFSET -14.070313 0.000000 0.000000
                    CHANNELS 3 Zrotation Xrotation Yrotation
                    JOINT RightForeArm
                    {
                        OFFSET -26.549477 0.000000 0.000000
                        CHANNELS 3 Zrotation Xrotation Yrotation
                        JOINT RightHand
                        {
                            OFFSET -18.880413 0.000000 0.000000
                            CHANNELS 3 Zrotation Xrotation Yrotation
                            End Site
                            {
                                OFFSET -13.256415 0.000000 0.000000
                            }
                        }
                    }
                }
            }
        }
    }
    JOINT LeftUpLeg
    {
        OFFSET 8.837609 0.000000 0.000000
        CHANNELS 3 Zrotation Xrotation Yrotation
        JOINT LeftLeg
        {
            OFFSET -0.000000 -41.345005 0.000000
            CHANNELS 3 Zrotation Xrotation Yrotation
            JOINT LeftFoot
            {
                OFFSET -0.000000 -35.500874 0.000000
                CHANNELS 3 Zrotation Xrotation Yrotation
                JOINT LeftToeBase
                {
                    OFFSET -0.000000 -5.744446 13.256415
                    CHANNELS 3 Zrotation Xrotation Yrotation
                    End Site
                    {
                        OFFSET -0.000000 0.000000 3.535044
                    }
                }
            }
        }
    }
    JOINT RightUpLeg
    {
        OFFSET -8.837609 0.000000 0.000000
        CHANNELS 3 Zrotation Xrotation Yrotation
        JOINT RightLeg
        {
            OFFSET -0.000000 -41.345005 0.000000
            CHANNELS 3 Zrotation Xrotation Yrotation
            JOINT RightFoot
            {
                OFFSET -0.000000 -35.500874 0.000000
                CHANNELS 3 Zrotation Xrotation Yrotation
                JOINT RightToeBase
                {
                    OFFSET -0.000000 -5.744446 13.256415
                    CHANNELS 3 Zrotation Xrotation Yrotation
                    End Site
                    {
                        OFFSET -0.000000 0.000000 3.535044
                    }
                }
            }
        }
    }
}
MOTION
Frames:    13
Frame Time:    0.010000
-0.595257    82.207703    -10.721154    3.678503    2.480557    0.843385    -5.331380    -14.091722    -0.689085    0.027208    3.419640    -0.030595    0.156258    30.983253    -1.175940    5.269092    -9.729009    -0.013237    17.563845    1.665368    8.170606    -28.737747    16.320431    -15.119359    5.337989    -12.619013    -15.299249    -28.025637    -10.218670    -6.929151    -14.645693    -0.032301    13.565275    23.538519    5.648878    5.559062    -4.780942    -8.954922    6.462274    7.737585    -7.831984    12.738767    -0.084803    6.591578    -1.293107    -1.533767    -8.329207    -1.027535    1.078658    2.011252    -2.002167    -1.021772    -3.017003    1.457186    -14.212516    3.913145    3.064039    7.391128    -10.498113    1.859104    4.290105    0.828815    -8.521181    -0.970211    1.192956    1.717839    
-0.596992    82.208000    -10.724434    3.677334    2.479218    0.840097    -5.333853    -14.083526    -0.685499    0.012996    3.414890    -0.029062    0.166137    30.998154    -1.178235    5.275526    -9.742385    -0.012178    17.559752    1.660881    8.168410    -28.708971    16.324606    -15.112782    5.350306    -12.605045    -15.329053    -28.065744    -10.208420    -6.891048    -14.640531    -0.023606    13.568191    23.541832    5.663902    5.557383    -4.794832    -9.011636    6.478015    7.832991    -7.875370    12.759913    -0.080517    6.590796    -1.297585    -1.545250    -8.326856    -1.013489    1.066488    1.806651    -2.306776    -1.183662    -3.019292    1.688073    -14.209346    3.909386    3.071777    7.387107    -10.494772    1.837179    4.304660    0.823186    -8.498071    -0.959318    1.165660    1.699042    
-0.597890    82.207787    -10.727747    3.679401    2.478945    0.842614    -5.354425    -14.081105    -0.691436    0.026526    3.422555    -0.031072    0.147857    30.997133    -1.177327    5.291076    -9.742417    -0.010401    17.559263    1.640152    8.178926    -28.703045    16.357109    -15.115764    5.367665    -12.597554    -15.338410    -28.053291    -10.200298    -6.885353    -14.654485    -0.018503    13.567085    23.554462    5.645929    5.559855    -4.809783    -9.071904    6.519850    7.936285    -7.921021    12.770461    -0.080378    6.587767    -1.316195    -1.536705    -8.335159    -0.977120    1.085869    2.000926    -2.055408    -1.028155    -3.039288    1.466496    -14.210280    3.905871    3.077876    7.381873    -10.489070    1.824871    4.317647    0.811503    -8.492292    -0.968409    1.182368    1.714840    
-0.597369    82.207947    -10.729543    3.684594    2.480431    0.839253    -5.377745    -14.085021    -0.689064    0.034649    3.433563    -0.025036    0.161671    30.991396    -1.178320    5.290151    -9.736033    -0.009874    17.571352    1.635836    8.169842    -28.718395    16.358912    -15.117731    5.376975    -12.590247    -15.332208    -28.012930    -10.183429    -6.930404    -14.646099    -0.005852    13.556660    23.550262    5.622962    5.556301    -4.819242    -9.117159    6.562157    7.965731    -7.961089    12.766652    -0.086867    6.583608    -1.312216    -1.536230    -8.324061    -1.005795    1.092692    2.000249    -1.995724    -1.015114    -3.032127    1.447830    -14.222589    3.899833    3.088770    7.389768    -10.487192    1.798656    4.331551    0.804537    -8.467124    -0.960801    1.172463    1.701546    
-0.595250    82.208298    -10.732522    3.691403    2.484649    0.838764    -5.379566    -14.080504    -0.697651    0.017093    3.428457    -0.032951    0.132485    30.986654    -1.158758    5.302321    -9.716585    0.008096    17.559284    1.633015    8.184234    -28.694944    16.394125    -15.095823    5.361874    -12.637817    -15.362065    -27.918478    -10.218973    -7.007762    -14.649335    -0.006086    13.562579    23.580887    5.568343    5.577196    -4.846008    -9.127173    6.585455    7.943182    -7.970762    12.772141    -0.094317    6.577250    -1.333852    -1.527043    -8.331784    -0.992330    1.086257    2.015354    -1.983344    -1.018438    -3.020794    1.452467    -14.240499    3.885077    3.072296    7.410114    -10.464049    1.825408    4.355530    0.781589    -8.476093    -0.977470    1.158164    1.731325    
-0.591078    82.209846    -10.733865    3.699211    2.489045    0.834225    -5.405476    -14.085668    -0.699578    0.034869    3.433903    -0.033978    0.125437    30.945997    -1.146465    5.290151    -9.644959    0.013895    17.584276    1.632873    8.183434    -28.768183    16.403782    -15.076104    5.372441    -12.708290    -15.388770    -27.815031    -10.275086    -7.085145    -14.641706    -0.020542    13.560726    23.591520    5.551462    5.568834    -4.869502    -9.137191    6.634555    7.915065    -7.981266    12.761399    -0.107350    6.568059    -1.344333    -1.523191    -8.323209    -0.972494    1.069633    2.012312    -1.985511    -1.013718    -3.052261    1.446024    -14.261445    3.872952    3.090791    7.415749    -10.450616    1.786037    4.389951    0.743623    -8.447700    -0.992526    1.159757    1.757960    
-0.590136    82.210526    -10.737578    3.699143    2.497277    0.828628    -5.431896    -14.092943    -0.701595    0.064402    3.441560    -0.033615    0.120190    30.935478    -1.147106    5.277836    -9.619589    0.008503    17.563829    1.669956    8.202828    -28.784510    16.354601    -15.102092    5.369591    -12.749219    -15.427452    -27.754641    -10.279267    -7.247319    -14.644119    -0.029610    13.548350    23.613028    5.506681    5.571404    -4.899482    -9.138650    6.699369    7.880853    -7.983356    12.742520    -0.103776    6.551582    -1.349423    -1.539737    -8.300286    -0.972606    1.065595    1.986028    -1.995852    -1.031740    -3.045055    1.471663    -14.268913    3.848415    3.107792    7.420451    -10.423901    1.780558    4.405299    0.717115    -8.455717    -1.026775    1.116908    1.819436    
-0.586642    82.211754    -10.740459    3.701689    2.505426    0.825096    -5.455003    -14.098512    -0.701222    0.070775    3.443754    -0.028383    0.165270    30.921581    -1.153670    5.236697    -9.578564    -0.002823    17.585051    1.671414    8.194304    -28.849491    16.346783    -15.074086    5.388594    -12.803546    -15.492727    -27.724705    -10.320080    -7.289879    -14.622140    -0.037234    13.543261    23.636608    5.480420    5.541573    -4.935554    -9.144574    6.790942    7.862767    -7.985494    12.739644    -0.106413    6.534058    -1.402810    -1.545071    -8.284219    -0.839314    1.069771    1.959115    -2.073522    -1.012630    -3.044439    1.444400    -14.283411    3.821534    3.122336    7.431406    -10.389517    1.749042    4.429858    0.672878    -8.427884    -1.034477    1.071995    1.833951    
-0.582166    82.213226    -10.742212    3.701873    2.509696    0.823211    -5.461838    -14.093283    -0.703623    0.070023    3.434888    -0.032033    0.148936    30.927563    -1.143327    5.247406    -9.565239    0.007404    17.567913    1.691967    8.218489    -28.861374    16.327274    -15.079595    5.392243    -12.802298    -15.562800    -27.731396    -10.314884    -7.288651    -14.617220    -0.056315    13.554274    23.684877    5.478704    5.499352    -4.971502    -9.150291    6.912300    7.829144    -7.988573    12.725650    -0.109623    6.511857    -1.406867    -1.541249    -8.242992    -0.901477    1.062391    1.726939    -2.323323    -1.207508    -3.047452    1.722385    -14.295543    3.793696    3.143734    7.436628    -10.330754    1.752460    4.475900    0.601005    -8.434420    -1.043557    1.007088    1.851313    
-0.577844    82.214783    -10.743909    3.700922    2.511065    0.818260    -5.472968    -14.087973    -0.700996    0.069436    3.434100    -0.028944    0.167370    30.915792    -1.153478    5.240690    -9.531951    -0.003517    17.582001    1.699049    8.209884    -28.929605    16.303564    -15.045459    5.436069    -12.757299    -15.643835    -27.808899    -10.259047    -7.270371    -14.607003    -0.064233    13.550369    23.734194    5.434043    5.466331    -4.999881    -9.140578    7.033137    7.855240    -7.966035    12.768154    -0.107898    6.489882    -1.438323    -1.533970    -8.202723    -0.910052    1.076714    1.873917    -1.997271    -1.036049    -3.053151    1.477885    -14.307112    3.765412    3.159839    7.444505    -10.274720    1.757390    4.499045    0.542174    -8.446168    -1.064434    0.915929    1.890168    
-0.573578    82.217171    -10.745374    3.699346    2.508065    0.815671    -5.464417    -14.074161    -0.707845    0.036003    3.430042    -0.033153    0.147683    30.916445    -1.141915    5.288995    -9.524408    0.016192    17.574066    1.719757    8.260874    -28.919706    16.332056    -15.066683    5.447021    -12.731622    -15.753158    -27.867937    -10.238244    -7.206333    -14.589392    -0.066261    13.571133    23.797291    5.401930    5.423581    -5.034121    -9.129552    7.185545    7.888015    -7.939677    12.809950    -0.100703    6.469513    -1.502885    -1.550894    -8.087014    -1.483091    1.093202    1.796948    -1.353617    -1.030977    -3.092402    1.471017    -14.314489    3.735203    3.194504    7.441155    -10.203113    1.747518    4.538887    0.449628    -8.462882    -1.061260    0.823061    1.886387    
-0.565082    82.220337    -10.743889    3.701980    2.494880    0.812061    -5.462588    -14.060751    -0.703838    0.007662    3.443544    -0.031332    0.133749    30.914337    -1.140672    5.344830    -9.523185    0.027859    17.572653    1.712536    8.267259    -28.935692    16.407280    -15.033360    5.497127    -12.713039    -15.892036    -28.038399    -10.233106    -7.050780    -14.567327    -0.061250    13.571416    23.863518    5.353758    5.388511    -5.062826    -9.119839    7.359739    7.899563    -7.919250    12.809278    -0.131061    6.449106    -1.507281    -1.490249    -8.013665    -1.517238    1.029616    1.735987    -1.320645    -1.002540    -3.218844    1.431593    -14.328918    3.714965    3.201527    7.452316    -10.122950    1.720007    4.540243    0.369254    -8.436968    -1.068694    0.669741    1.902695    
-0.557699    82.223022    -10.741797    3.704324    2.480819    0.812018    -5.456247    -14.056849    -0.697421    -0.033958    3.480561    -0.025063    0.189945    30.920895    -1.158361    5.315756    -9.561449    0.012808    17.596794    1.722179    8.263312    -28.990017    16.464823    -15.004552    5.559592    -12.628397    -16.004148    -28.028837    -10.071133    -7.306711    -14.532281    -0.065299    13.553967    23.925905    5.395223    5.354908    -5.108051    -9.154563    7.548935    7.946220    -7.937500    12.810528    -0.114204    6.438545    -1.601345    -1.534368    -7.950287    -1.458175    1.065323    1.692307    -1.284954    -1.008442    -3.274477    1.440530    -14.336159    3.687634    3.173616    7.447009    -10.019034    1.771341    4.620028    0.259815    -8.463770    -1.058343    0.503331    1.887611    
